<svg xmlns="http://www.w3.org/2000/svg" width="820" height="330" viewBox="0 0 820 330">
      <rect width="100%" height="100%" rx="18" fill="#0D0D0D"/>
      <rect x="1" y="1" width="818" height="328" rx="17" fill="none" stroke="#2A2A2A"/>
      <text x="28" y="46" fill="#FF6B00" font-family="JetBrains Mono, monospace" font-size="24" font-weight="700">top languages</text>
      <rect x="28" y="98" width="428" height="12" rx="6" fill="#3178C6"/>
      <text x="28" y="86" fill="#FFF" font-family="JetBrains Mono, monospace" font-size="15">TypeScript</text>
      <text x="700" y="86" fill="#FF6B00" text-anchor="end" font-family="JetBrains Mono, monospace" font-size="15">61.2%</text><rect x="28" y="136" width="100" height="12" rx="6" fill="#FF6B00"/>
      <text x="28" y="124" fill="#FFF" font-family="JetBrains Mono, monospace" font-size="15">Python</text>
      <text x="700" y="124" fill="#FF6B00" text-anchor="end" font-family="JetBrains Mono, monospace" font-size="15">14.4%</text><rect x="28" y="174" width="57" height="12" rx="6" fill="#FF6B00"/>
      <text x="28" y="162" fill="#FFF" font-family="JetBrains Mono, monospace" font-size="15">Rust</text>
      <text x="700" y="162" fill="#FF6B00" text-anchor="end" font-family="JetBrains Mono, monospace" font-size="15">8.3%</text><rect x="28" y="212" width="55" height="12" rx="6" fill="#1572B6"/>
      <text x="28" y="200" fill="#FFF" font-family="JetBrains Mono, monospace" font-size="15">CSS</text>
      <text x="700" y="200" fill="#FF6B00" text-anchor="end" font-family="JetBrains Mono, monospace" font-size="15">8.0%</text><rect x="28" y="250" width="34" height="12" rx="6" fill="#F7DF1E"/>
      <text x="28" y="238" fill="#FFF" font-family="JetBrains Mono, monospace" font-size="15">JavaScript</text>
      <text x="700" y="238" fill="#FF6B00" text-anchor="end" font-family="JetBrains Mono, monospace" font-size="15">5.0%</text><rect x="28" y="288" width="18" height="12" rx="6" fill="#E34F26"/>
      <text x="28" y="276" fill="#FFF" font-family="JetBrains Mono, monospace" font-size="15">HTML</text>
      <text x="700" y="276" fill="#FF6B00" text-anchor="end" font-family="JetBrains Mono, monospace" font-size="15">2.6%</text>
    </svg>